<?xml version="1.0" encoding="utf-8"?>
<!-- Generator: Adobe Illustrator 12.0.0, SVG Export Plug-In  -->
<!DOCTYPE svg PUBLIC "-//W3C//DTD SVG 1.1//EN" "http://www.w3.org/Graphics/SVG/1.1/DTD/svg11.dtd" [
	<!ENTITY ns_flows "http://ns.adobe.com/Flows/1.0/">
	<!ENTITY ns_svg "http://www.w3.org/2000/svg">
	<!ENTITY ns_xlink "http://www.w3.org/1999/xlink">
]>
<svg  version="1.1" xmlns="&ns_svg;" xmlns:xlink="&ns_xlink;" xmlns:a="http://ns.adobe.com/AdobeSVGViewerExtensions/3.0/"
	 width="274" height="209" viewBox="0 -0.147 274 209" enable-background="new 0 -0.147 274 209" xml:space="preserve">
<defs>
</defs>
<path fill-rule="evenodd" clip-rule="evenodd" fill="#FFFFFF" d="M164,5.853c3.891-4.622,12.07,5.192,15,6
	c4.697,1.296,12.59-4.475,18,2c-7.955-3.739-15.505,5.19-22,3c0.733-0.934,1.818-1.515,3-2C174.078,11.108,169.996,7.522,164,5.853z
	"/>
<path fill-rule="evenodd" clip-rule="evenodd" fill="#FFFFFF" d="M231,162.853c-6.384,0.677-12.311-3.31-19-4
	c-33.884-3.498-59.157,19.822-93,19c2.309-15.515-3.212-27.29,0-39c1.174-4.28,7.998-9.327,13-14c13.844-12.931,30.801-30.058,42-42
	c20.034,17.3,37.561,37.106,57,55C231.198,145.731,230.725,158.226,231,162.853z M159.917,123.853l0.083,13c0,0,8.667,0,13,0
	c0-4,0-13,0-13H159.917z M177,136.853c4.333,0,13,0,13,0v-13h-13C177,123.853,177,132.52,177,136.853z M160,153.853
	c4.333,0,8.667,0,13,0c0-4.333,0-8.667,0-13c-4.333,0-8.667,0-13,0C160,145.186,160,149.52,160,153.853z M177,153.853
	c4.333,0,8.667,0,13,0c0-4.333,0-8.667,0-13c-4.333,0-8.667,0-13,0C177,145.186,177,149.52,177,153.853z"/>
<path fill-rule="evenodd" clip-rule="evenodd" fill="#FFFFFF" d="M68,15.853c24.248-3.22,40.185,10.46,46,29
	c-5.088-3.912-8.816-9.184-15-12c-1.361,1.427,3.769,4.848,2,10c-3.263-4.737-8.079-7.921-13-11c-1.963,0.758,2.713,3.192,1,7
	c-3.739-4.594-6.574-10.093-12-13c2.602,5.407,9.537,15.123,9,27c2.499,2.834,7.441,3.225,11,5c-5.877-2.764-5.198-7.7-9-11
	c6.878-0.865,12.87,7.787,15,15c7.253-3.304,18.606-2.171,24,2c-4.323,0.585-3.026,2.827-8-1c2.215,5.174-4.874,0.264-8-1
	c1.438,1.759,0.917,2.279-2,2c10.232,4.768,17.326,12.674,18,27c-2.903-1.431-2.479-6.187-5-8c-1.85,0.15-0.614,3.386-2,4
	c-2.616-2.05-3.364-5.969-5-9c-1.357,0.31-0.83,2.504-1,4c-2.201-2.466-2.222-7.112-4-10c0.254,7.446-0.182,18.254-4,23
	c1.116-2.564-3.618-3.95-4-5c-0.125-0.345,1.102-1.933,1-3c-0.133-1.396-2.001-2.105-2-2c-0.006-0.688,4.036-7.456,1-5
	c-2.894-2.637,2.237-5.706,1-10c-20.577,32.728-9.266,92.078,14,113c43.178,0.013,82.72-36.75,123-8
	c-45.961-1.906-82.695,20.799-124,19c-22.98-1.001-43.726-9.841-73-8c8.501-4.166,20.226-5.107,33-5
	c-21.545-38.026-35.671-105.313-17-156c-4.694,3.306-4.499,11.501-6,18c-1.701,0.368-1.887-0.78-2-2c-3.527,2.14-1.437,9.896-2,15
	c-2.271-0.729-2.991-3.009-4-5c-2.184,2.183-4.44,9.514-2,13c-3.203,2.484-4.991-4.971-5-9c-4.919,5.414-5.683,14.984-8,23
	c-3.866-8.361-2.13-23.544,3-29c-0.691-2.497-2.667,1.856-5,1c3.765-8.67,6.966-14.281,16-19c-0.658-2.995-2.138,0.956-4,0
	c2.478-5.188,7.202-8.132,13-10c-5.384-1.697-12.433,3.551-16,7c-2.487-0.15-0.292-3.386,0-4c-3.025,2.642-6.897,4.436-7,10
	c-3.468-0.483-2.552-3.796-2-6c-4.783,1.55-8.045,4.621-10,9c-2.85-1.645,0.48-5.426,1-7c-8.314,3.019-12.147,10.519-19,15
	c6.124-21.21,20.607-34.059,50-32c-2.087-1.579-5.26-2.074-9-2c4.438-2.277-1.917-3.454-6-3c0.733-0.934,1.818-1.515,3-2
	c-1.01-1.656-4.247-1.086-6-2c3.923-1.97-0.8-2.683-4-3c16.105-4.1,25.081,7.582,34,14c6.865-8.272,20.402-14.745,36-11
	c-0.745,2.255-5.609,0.391-8,1c0.847,1.486,3.22,1.447,5,2c-2.735,2.992-6.608-1.335-11,0c0.658,1.342,2.138,1.862,4,2
	c-1.862,3.31-9.072-3.313-6,3c-2.347-0.986-4.913-1.754-8-2c-1.401,0.354-0.086,1.761,1,2C73.712,14.231,68.506,12.692,68,15.853z
	 M73,63.853c-0.043-1.376,0.471-2.196,1-3c-6.029-0.363-8.2,3.133-13,4c3.896-5.104,8.491-9.509,16-11c-0.105-2.561-0.566-4.767-2-6
	c0.306,1.212-2.889,3.448-3,1c2.063-2.563,0.523-7.928-1-10c0.182,2.182-0.818,3.182-3,3c0.185-6.852,0.178-13.511-4-16
	c-13.928,56.727,3.415,116.151,23,155c4.593-0.555,10.311,2.972,14,0c-19.235-25.903-21.729-85.615-2-113
	c-4.869,0.131-4.027,5.973-7,8c-3.462-2.731-4.105,4.038-6,6c-0.485-1.182-1.066-2.267-2-3c-1.479,2.188-1.95,5.383-4,7
	c-2.924-1.613,1.595-5.155-1-6c-3.038,3.628-6.279,7.054-9,11c0.959-7.708,4.194-13.139,9-17c-1.72-0.395-2.563,1.484-3,0
	c6.831-5.934,12.604-7.924,20-12c-8.567,1.141-11.614,0.836-16,2c-0.395-1.72,1.484-2.563,0-3
	C78.355,62.542,74.574,62.094,73,63.853z"/>
<path fill-rule="evenodd" clip-rule="evenodd" fill="#FFFFFF" d="M133,46.853c8.326-8.983,29.844-15.839,50-15
	c45.899,1.911,84.91,40.447,85,89c0.049,26.284-10.987,42.756-23,59c30.783-64.52-11.046-145.636-93-138
	C145.405,42.467,139.419,44.188,133,46.853z"/>
<path fill-rule="evenodd" clip-rule="evenodd" fill="#FFFFFF" d="M105,133.853c7.752-11.581,19.416-19.251,28-30
	c0-9.667,0-19.333,0-29c-1.387-2.946-5.781-2.886-4-9c9.006,0.661,20.659-1.325,28,1c2.234,3.841,0.078,5.879-3,7
	c0,2.667,0,5.333,0,8c6.08-2.928,13.92-12.741,20-19c24.917,22.417,48.583,46.083,71,71c-14.704,2.921-19.959-4.959-28-13
	c-13.847-13.847-28.419-29.867-42-42c-3.918,3.098-11.878,11.898-13,12c-14.52,14.147-28.161,29.173-43,43
	C114.333,133.853,109.667,133.853,105,133.853z"/>
<path fill-rule="evenodd" clip-rule="evenodd" fill="#FFFFFF" d="M88,200.853c65.477,3.371,129.928-39.269,186-9
	C212.814,190.265,149.493,221.357,88,200.853z"/>
</svg>
