<?xml version="1.0" encoding="utf-8"?>
<!-- Generator: Adobe Illustrator 22.0.1, SVG Export Plug-In . SVG Version: 6.00 Build 0)  -->
<svg version="1.1" id="Layer_1" xmlns="http://www.w3.org/2000/svg" xmlns:xlink="http://www.w3.org/1999/xlink" x="0px" y="0px"
	 viewBox="0 0 128 128" style="enable-background:new 0 0 128 128;" xml:space="preserve">
<style type="text/css">
	.st0{fill:#3A2C60;}
	.st1{fill:#E6E7E8;}
	.st2{fill:#6DC9F7;}
	.st3{fill:#FA759E;}
	.st4{fill:#FFFFFF;}
	.st5{fill:#0089EF;}
	.st6{fill:#FFD7E5;}
	.st7{fill:#D4FBFF;}
</style>
<g>
	<g>
		<g>
			<circle class="st1" cx="66" cy="66" r="56"/>
		</g>
	</g>
	<g>
		<g>
			<g>
				<circle class="st2" cx="62" cy="62" r="55"/>
			</g>
		</g>
		<g>
			<path class="st4" d="M10,62C10,32.127,33.82,7.835,63.5,7.038C63,7.025,62.503,7,62,7C31.624,7,7,31.624,7,62s24.624,55,55,55
				c0.503,0,1-0.025,1.5-0.038C33.82,116.165,10,91.873,10,62z"/>
		</g>
		<g>
			<g>
				<path class="st3" d="M24.977,61.958c1.843,1.171,4.287,0.625,5.458-1.217l8.296-13.058l8.296,13.058
					c0.725,1.142,1.984,1.834,3.338,1.834c1.353,0,2.612-0.692,3.338-1.834L62,47.682l8.296,13.058
					c0.725,1.142,1.984,1.834,3.338,1.834s2.612-0.692,3.338-1.834l8.296-13.058l8.296,13.058c0.753,1.186,2.033,1.834,3.341,1.834
					c0.725,0,1.459-0.2,2.117-0.617c1.843-1.171,2.388-3.615,1.217-5.458L88.606,38.187c-0.725-1.142-1.984-1.834-3.338-1.834
					s-2.612,0.692-3.338,1.834l-8.296,13.058l-8.296-13.058c-0.725-1.142-1.984-1.834-3.338-1.834s-2.612,0.692-3.338,1.834
					l-8.296,13.058l-8.296-13.058c-0.725-1.142-1.984-1.834-3.338-1.834c-1.353,0-2.612,0.692-3.338,1.834L23.76,56.499
					C22.589,58.343,23.134,60.786,24.977,61.958z"/>
			</g>
			<g>
				<path class="st3" d="M24.977,61.958c1.843,1.171,4.287,0.625,5.458-1.217l8.296-13.058l8.296,13.058
					c0.725,1.142,1.984,1.834,3.338,1.834c1.353,0,2.612-0.692,3.338-1.834L62,47.682l8.296,13.058
					c0.725,1.142,1.984,1.834,3.338,1.834s2.612-0.692,3.338-1.834l8.296-13.058l8.296,13.058c0.753,1.186,2.033,1.834,3.341,1.834
					c0.725,0,1.459-0.2,2.117-0.617c1.843-1.171,2.388-3.615,1.217-5.458L88.606,38.187c-0.725-1.142-1.984-1.834-3.338-1.834
					s-2.612,0.692-3.338,1.834l-8.296,13.058l-8.296-13.058c-0.725-1.142-1.984-1.834-3.338-1.834s-2.612,0.692-3.338,1.834
					l-8.296,13.058l-8.296-13.058c-0.725-1.142-1.984-1.834-3.338-1.834c-1.353,0-2.612,0.692-3.338,1.834L23.76,56.499
					C22.589,58.343,23.134,60.786,24.977,61.958z"/>
			</g>
			<path class="st3" d="M88.606,63.259c-0.725-1.142-1.984-1.834-3.338-1.834s-2.612,0.692-3.338,1.834l-8.296,13.058l-8.296-13.058
				c-0.725-1.142-1.984-1.834-3.338-1.834s-2.612,0.692-3.338,1.834l-8.296,13.058l-8.296-13.058
				c-0.725-1.142-1.984-1.834-3.338-1.834c-1.353,0-2.612,0.692-3.338,1.834L23.76,81.571c-1.171,1.844-0.626,4.287,1.217,5.458
				c1.843,1.172,4.287,0.625,5.458-1.217l8.296-13.058l8.296,13.058c0.725,1.142,1.984,1.834,3.338,1.834
				c1.353,0,2.612-0.692,3.338-1.834L62,72.754l8.296,13.058c0.725,1.142,1.984,1.834,3.338,1.834s2.612-0.692,3.338-1.834
				l8.296-13.058l8.296,13.058c0.753,1.186,2.033,1.834,3.341,1.834c0.725,0,1.459-0.2,2.117-0.617
				c1.843-1.171,2.388-3.615,1.217-5.458L88.606,63.259z"/>
		</g>
		<g>
			<path class="st0" d="M24.44,62.801c2.304,1.464,5.372,0.782,6.839-1.524l7.452-11.73l7.453,11.73
				c0.914,1.438,2.477,2.297,4.181,2.297s3.268-0.859,4.182-2.297L62,49.547l7.453,11.73c0.914,1.438,2.478,2.297,4.182,2.297
				s3.267-0.859,4.182-2.297l7.452-11.73l7.452,11.73c0.914,1.439,2.479,2.298,4.186,2.298c0.939,0,1.856-0.267,2.654-0.773
				c2.305-1.465,2.988-4.532,1.524-6.838L89.45,37.651c-0.914-1.439-2.477-2.298-4.182-2.298S82,36.212,81.086,37.651l-7.452,11.73
				l-7.453-11.73c-0.914-1.439-2.477-2.298-4.182-2.298s-3.268,0.859-4.182,2.298l-7.453,11.73l-7.452-11.73
				c-0.914-1.439-2.477-2.298-4.182-2.298s-3.268,0.859-4.182,2.298l-2.452,3.859c-0.296,0.466-0.158,1.084,0.308,1.38
				c0.465,0.295,1.083,0.158,1.38-0.308l2.452-3.859c0.544-0.858,1.477-1.37,2.493-1.37s1.949,0.512,2.493,1.37l8.296,13.059
				c0.367,0.578,1.321,0.578,1.688,0l8.297-13.059c0.544-0.858,1.477-1.37,2.493-1.37s1.949,0.512,2.493,1.37l8.297,13.059
				c0.367,0.578,1.321,0.578,1.688,0l8.296-13.059c0.544-0.858,1.477-1.37,2.493-1.37s1.949,0.512,2.493,1.37l11.634,18.312
				c0.873,1.375,0.465,3.204-0.909,4.078c-0.476,0.302-1.022,0.461-1.581,0.461c-1.019,0-1.952-0.512-2.497-1.37l-8.296-13.059
				c-0.367-0.578-1.321-0.578-1.688,0l-8.296,13.058c-0.545,0.858-1.478,1.37-2.494,1.37c-1.017,0-1.949-0.512-2.494-1.37
				l-8.296-13.059c-0.367-0.578-1.321-0.578-1.688,0L52.86,60.204c-0.545,0.858-1.478,1.37-2.494,1.37
				c-1.016,0-1.948-0.512-2.493-1.37l-8.296-13.059c-0.367-0.578-1.321-0.578-1.688,0l-8.296,13.058
				c-0.874,1.375-2.703,1.784-4.078,0.91c-1.375-0.874-1.782-2.703-0.909-4.078l1.503-2.366c0.296-0.466,0.158-1.084-0.308-1.38
				c-0.466-0.295-1.084-0.158-1.38,0.308l-1.503,2.366C21.452,58.269,22.136,61.336,24.44,62.801z"/>
			<path class="st0" d="M27.139,51.183c0.166,0.105,0.352,0.156,0.535,0.156c0.331,0,0.654-0.164,0.845-0.464l2.8-4.407
				c0.296-0.466,0.158-1.084-0.308-1.38c-0.465-0.295-1.083-0.158-1.38,0.308l-2.8,4.407C26.535,50.269,26.672,50.886,27.139,51.183
				z"/>
			<path class="st0" d="M101.084,81.035L89.45,62.723c-0.914-1.438-2.477-2.297-4.182-2.297S82,61.285,81.086,62.723l-7.452,11.73
				l-7.453-11.73c-0.914-1.438-2.477-2.297-4.182-2.297s-3.268,0.859-4.182,2.297l-7.453,11.73l-7.452-11.73
				c-0.914-1.438-2.477-2.297-4.182-2.297s-3.268,0.859-4.182,2.297L22.916,81.035c-1.464,2.306-0.78,5.374,1.524,6.838
				c2.306,1.467,5.374,0.781,6.839-1.525l7.452-11.73l7.452,11.73c0.914,1.439,2.478,2.298,4.182,2.298
				c1.705,0,3.268-0.859,4.182-2.298L62,74.619l7.452,11.73c0.914,1.439,2.478,2.298,4.182,2.298c1.704,0,3.268-0.859,4.182-2.298
				l7.452-11.73l7.452,11.73c0.914,1.439,2.479,2.298,4.186,2.298c0.939,0,1.856-0.267,2.654-0.773
				C101.864,86.409,102.548,83.341,101.084,81.035z M98.487,86.186c-0.476,0.302-1.022,0.461-1.581,0.461
				c-1.019,0-1.952-0.512-2.497-1.371l-8.296-13.059c-0.184-0.289-0.502-0.464-0.844-0.464s-0.661,0.175-0.844,0.464l-8.296,13.059
				c-0.545,0.858-1.477,1.37-2.493,1.37c-1.017,0-1.949-0.512-2.494-1.37l-8.296-13.059c-0.367-0.578-1.321-0.578-1.688,0
				l-8.296,13.059c-0.545,0.858-1.477,1.37-2.494,1.37c-1.016,0-1.948-0.512-2.493-1.37l-8.296-13.059
				c-0.367-0.578-1.321-0.578-1.688,0l-8.296,13.058c-0.875,1.375-2.704,1.783-4.078,0.91c-1.375-0.874-1.783-2.704-0.909-4.079
				l11.634-18.312c0.544-0.857,1.477-1.37,2.493-1.37s1.949,0.512,2.493,1.37l8.296,13.059c0.367,0.578,1.321,0.578,1.688,0
				l8.297-13.059c0.544-0.857,1.477-1.37,2.493-1.37s1.949,0.512,2.493,1.37l8.297,13.059c0.367,0.578,1.321,0.578,1.688,0
				l8.296-13.059c0.544-0.857,1.477-1.37,2.493-1.37s1.949,0.512,2.493,1.37l11.634,18.312
				C100.269,83.482,99.861,85.312,98.487,86.186z"/>
			<path class="st0" d="M62,6C31.122,6,6,31.122,6,62s25.122,56,56,56s56-25.122,56-56S92.878,6,62,6z M62,116
				C32.224,116,8,91.776,8,62S32.224,8,62,8s54,24.224,54,54S91.776,116,62,116z"/>
		</g>
	</g>
</g>
</svg>
